<svg width="534" height="192" viewBox="0 0 534 192" fill="none" xmlns="http://www.w3.org/2000/svg">
<path d="M424.498 64H439.392L470.005 128H454L431.936 78L410 128H394L424.498 64Z" fill="#FF5D15"/>
<path d="M151 64H166V117H210.318L205 128H151V64Z" fill="#FF5D15"/>
<path d="M316 64H383V75H357V128H342V75H316V64Z" fill="#FF5D15"/>
<path d="M259.498 64H274.392L305.005 128H289L266.936 78L245 128H229L259.498 64Z" fill="#FF5D15"/>
<path fill-rule="evenodd" clip-rule="evenodd" d="M76.2111 64.2527C72.6289 64.4234 69.2708 64.7655 66.1404 65.2835L64 65.6377V128H79V106.147L81.2655 106.278H92.9216C97.1919 106.278 101.35 105.934 105.392 105.242C109.49 104.541 113.191 103.391 116.468 101.765L116.485 101.756L116.502 101.748C119.827 100.036 122.565 97.797 124.652 95.0086C126.864 92.0513 127.906 88.4879 127.906 84.4728C127.906 80.3753 126.768 76.7865 124.329 73.9133C122.133 71.2358 119.286 69.1764 115.865 67.7054C112.522 66.2685 108.834 65.2977 104.82 64.7716C100.977 64.2577 97.1698 64 93.3985 64C89.9892 64 79.7783 64.0828 76.2111 64.2527ZM100.882 75.6827C103.221 76.0401 105.241 76.6433 106.969 77.4642L107.012 77.4847L107.056 77.5036C108.782 78.2455 110.037 79.2169 110.925 80.3748L110.964 80.4249L111.005 80.4732C111.822 81.4373 112.302 82.7064 112.302 84.4738C112.302 86.691 111.748 88.2883 110.824 89.4659L110.801 89.4954L110.778 89.5257C109.797 90.8537 108.458 91.9193 106.679 92.7017C104.781 93.5365 102.592 94.1465 100.091 94.5079C97.5834 94.8255 95.035 94.9847 92.4449 94.9847H81.1745C80.4328 94.9425 79.7027 94.9162 79 94.9061L79.0078 75.3169C79.6094 75.2693 80.291 75.2334 81.0562 75.2111C82.9175 75.1569 91.5534 75.1289 93.6371 75.1289C96.0502 75.1289 98.4649 75.3133 100.882 75.6827Z" fill="#FF5D15"/>
</svg>
